<svg xmlns="http://www.w3.org/2000/svg" width="128" height="128" viewBox="0 0 128 128">
  <defs>
    <linearGradient id="foxGradient" x1="0%" y1="0%" x2="100%" y2="100%">
      <stop offset="0%" style="stop-color:#FF6B35;stop-opacity:1" />
      <stop offset="100%" style="stop-color:#F7931E;stop-opacity:1" />
    </linearGradient>
  </defs>
  
  <!-- Fondo circular -->
  <circle cx="64" cy="64" r="60" fill="url(#foxGradient)" stroke="#E55A24" stroke-width="4"/>
  
  <!-- Cabeza del zorro -->
  <ellipse cx="64" cy="55" rx="25" ry="20" fill="#FF6B35"/>
  
  <!-- Orejas -->
  <ellipse cx="50" cy="40" rx="8" ry="12" fill="#FF6B35" transform="rotate(-15 50 40)"/>
  <ellipse cx="78" cy="40" rx="8" ry="12" fill="#FF6B35" transform="rotate(15 78 40)"/>
  
  <!-- Ojos -->
  <circle cx="58" cy="50" r="4" fill="#FFFFFF"/>
  <circle cx="70" cy="50" r="4" fill="#FFFFFF"/>
  <circle cx="58" cy="50" r="2" fill="#000000"/>
  <circle cx="70" cy="50" r="2" fill="#000000"/>
  
  <!-- Nariz -->
  <ellipse cx="64" cy="58" rx="2" ry="1" fill="#000000"/>
  
  <!-- Cuerpo -->
  <ellipse cx="64" cy="85" rx="20" ry="15" fill="#FF6B35"/>
  
  <!-- Cola -->
  <path d="M 85 75 Q 95 65 90 55 Q 85 45 75 50" fill="#FF6B35" stroke="#E55A24" stroke-width="2"/>
  
  <!-- Patas -->
  <ellipse cx="55" cy="95" rx="3" ry="8" fill="#FF6B35"/>
  <ellipse cx="73" cy="95" rx="3" ry="8" fill="#FF6B35"/>
</svg>


